<svg width="730" height="1330" viewBox="0 0 730 1330" xmlns="http://www.w3.org/2000/svg">
<defs>
  <marker id="arr" viewBox="0 0 10 10" refX="9" refY="5" markerWidth="6" markerHeight="6" orient="auto">
    <path d="M1 2L8 5L1 8" fill="none" stroke="#888" stroke-width="1.5" stroke-linecap="round"/>
  </marker>
  <marker id="arrd" viewBox="0 0 10 10" refX="9" refY="5" markerWidth="6" markerHeight="6" orient="auto">
    <path d="M1 2L8 5L1 8" fill="none" stroke="#555" stroke-width="1.5" stroke-linecap="round"/>
  </marker>
  <marker id="tri" viewBox="0 0 12 10" refX="11" refY="5" markerWidth="8" markerHeight="7" orient="auto">
    <path d="M0 1L11 5L0 9" fill="none" stroke="#555" stroke-width="1.5"/>
  </marker>
  <marker id="triF" viewBox="0 0 12 10" refX="11" refY="5" markerWidth="8" markerHeight="7" orient="auto">
    <path d="M0 0L12 5L0 10Z" fill="#666" stroke="none"/>
  </marker>
  <marker id="diam" viewBox="0 0 16 10" refX="1" refY="5" markerWidth="10" markerHeight="7" orient="auto-start-reverse">
    <path d="M8 0L16 5L8 10L0 5Z" fill="none" stroke="#777" stroke-width="1.2"/>
  </marker>
  <marker id="diamF" viewBox="0 0 16 10" refX="1" refY="5" markerWidth="10" markerHeight="7" orient="auto-start-reverse">
    <path d="M8 0L16 5L8 10L0 5Z" fill="#888" stroke="none"/>
  </marker>
  <filter id="sh" x="-10%" y="-15%" width="130%" height="140%">
    <feDropShadow dx="1" dy="1" stdDeviation="1.8" flood-opacity="0.13"/>
  </filter>
</defs>
<rect width="730" height="1330" fill="white"/>
<rect x="0" y="0" width="730" height="38" fill="#F0F4F8"/>
<line x1="0" y1="38" x2="730" y2="38" stroke="#CDD5E0" stroke-width="1"/>
<text x="365" y="24" text-anchor="middle" font-family="Arial, sans-serif" font-size="14" font-weight="bold" fill="#1A1A2E">Diagramme de Cas d'Utilisation — JobFinder AI v2.1</text>
<rect x="98" y="50" width="506" height="1262" rx="8" fill="rgba(245,248,255,0.4)" stroke="#999" stroke-width="1.4" stroke-dasharray="9,5"/>
<text x="351" y="68" text-anchor="middle" font-family="Arial, sans-serif" font-size="12" font-weight="700" fill="#444">Système JobFinder AI</text>
<rect x="103" y="76" width="496" height="78" rx="6" fill="rgba(255,243,224,0.80)" stroke="#E65100" stroke-width="1.3" stroke-opacity="0.55"/>
<rect x="103" y="76" width="496" height="22" rx="6" fill="#E65100"/>
<rect x="103" y="90" width="496" height="8" fill="#E65100"/>
<text x="351" y="88" text-anchor="middle" dominant-baseline="central" font-family="Arial, sans-serif" font-size="10.5" font-weight="bold" fill="white">Authentification</text>
<ellipse cx="222" cy="119" rx="79" ry="17" fill="#FFF3E0" stroke="#FF8F00" stroke-width="1.4" filter="url(#sh)"/><text x="222" y="119" text-anchor="middle" dominant-baseline="central" font-family="Arial, sans-serif" font-size="10.5" font-weight="500" fill="#7F3100">S'inscrire</text>
<ellipse cx="470" cy="119" rx="79" ry="17" fill="#FFF3E0" stroke="#FF8F00" stroke-width="1.4" filter="url(#sh)"/><text x="470" y="119" text-anchor="middle" dominant-baseline="central" font-family="Arial, sans-serif" font-size="10.5" font-weight="500" fill="#7F3100">Se connecter</text>
<rect x="103" y="162" width="496" height="120" rx="6" fill="rgba(224,247,250,0.80)" stroke="#006064" stroke-width="1.3" stroke-opacity="0.55"/>
<rect x="103" y="162" width="496" height="22" rx="6" fill="#006064"/>
<rect x="103" y="176" width="496" height="8" fill="#006064"/>
<text x="351" y="174" text-anchor="middle" dominant-baseline="central" font-family="Arial, sans-serif" font-size="10.5" font-weight="bold" fill="white">Gestion des Offres</text>
<ellipse cx="222" cy="205" rx="79" ry="17" fill="#E0F7FA" stroke="#00ACC1" stroke-width="1.4" filter="url(#sh)"/><text x="222" y="205" text-anchor="middle" dominant-baseline="central" font-family="Arial, sans-serif" font-size="10.5" font-weight="500" fill="#00363A">Consulter les offres</text>
<ellipse cx="470" cy="205" rx="79" ry="17" fill="#E0F7FA" stroke="#00ACC1" stroke-width="1.4" filter="url(#sh)"/><text x="470" y="205" text-anchor="middle" dominant-baseline="central" font-family="Arial, sans-serif" font-size="10.5" font-weight="500" fill="#00363A">Filtrer les offres</text>
<ellipse cx="222" cy="247" rx="79" ry="17" fill="#E0F7FA" stroke="#00ACC1" stroke-width="1.4" filter="url(#sh)"/><text x="222" y="247" text-anchor="middle" dominant-baseline="central" font-family="Arial, sans-serif" font-size="10.5" font-weight="500" fill="#00363A">Voir détail d'une offre</text>
<ellipse cx="470" cy="247" rx="79" ry="17" fill="#E0F7FA" stroke="#00ACC1" stroke-width="1.4" filter="url(#sh)"/><text x="470" y="247" text-anchor="middle" dominant-baseline="central" font-family="Arial, sans-serif" font-size="10.5" font-weight="500" fill="#00363A">Calcul Matching NLP + ML</text>
<rect x="103" y="290" width="496" height="246" rx="6" fill="rgba(227,242,253,0.80)" stroke="#1565C0" stroke-width="1.3" stroke-opacity="0.55"/>
<rect x="103" y="290" width="496" height="22" rx="6" fill="#1565C0"/>
<rect x="103" y="304" width="496" height="8" fill="#1565C0"/>
<text x="351" y="302" text-anchor="middle" dominant-baseline="central" font-family="Arial, sans-serif" font-size="10.5" font-weight="bold" fill="white">Espace Candidat</text>
<ellipse cx="222" cy="333" rx="79" ry="17" fill="#BBDEFB" stroke="#42A5F5" stroke-width="1.4" filter="url(#sh)"/><text x="222" y="333" text-anchor="middle" dominant-baseline="central" font-family="Arial, sans-serif" font-size="10.5" font-weight="500" fill="#0D47A1">Postuler à une offre</text>
<ellipse cx="470" cy="333" rx="79" ry="17" fill="#BBDEFB" stroke="#42A5F5" stroke-width="1.4" filter="url(#sh)"/><text x="470" y="333" text-anchor="middle" dominant-baseline="central" font-family="Arial, sans-serif" font-size="10.5" font-weight="500" fill="#0D47A1">Sauvegarder une offre</text>
<ellipse cx="222" cy="375" rx="79" ry="17" fill="#BBDEFB" stroke="#42A5F5" stroke-width="1.4" filter="url(#sh)"/><text x="222" y="375" text-anchor="middle" dominant-baseline="central" font-family="Arial, sans-serif" font-size="10.5" font-weight="500" fill="#0D47A1">Ignorer une offre</text>
<ellipse cx="470" cy="375" rx="79" ry="17" fill="#BBDEFB" stroke="#42A5F5" stroke-width="1.4" filter="url(#sh)"/><text x="470" y="375" text-anchor="middle" dominant-baseline="central" font-family="Arial, sans-serif" font-size="10.5" font-weight="500" fill="#0D47A1">Gérer son profil</text>
<ellipse cx="222" cy="417" rx="79" ry="17" fill="#BBDEFB" stroke="#42A5F5" stroke-width="1.4" filter="url(#sh)"/><text x="222" y="417" text-anchor="middle" dominant-baseline="central" font-family="Arial, sans-serif" font-size="10.5" font-weight="500" fill="#0D47A1">Importer son CV</text>
<ellipse cx="470" cy="417" rx="79" ry="17" fill="#BBDEFB" stroke="#42A5F5" stroke-width="1.4" filter="url(#sh)"/><text x="470" y="417" text-anchor="middle" dominant-baseline="central" font-family="Arial, sans-serif" font-size="10.5" font-weight="500" fill="#0D47A1">Parsing auto du CV</text>
<ellipse cx="222" cy="459" rx="79" ry="17" fill="#BBDEFB" stroke="#42A5F5" stroke-width="1.4" filter="url(#sh)"/><text x="222" y="459" text-anchor="middle" dominant-baseline="central" font-family="Arial, sans-serif" font-size="10.5" font-weight="500" fill="#0D47A1">Suivre ses candidatures</text>
<ellipse cx="470" cy="459" rx="79" ry="17" fill="#BBDEFB" stroke="#42A5F5" stroke-width="1.4" filter="url(#sh)"/><text x="470" y="459" text-anchor="middle" dominant-baseline="central" font-family="Arial, sans-serif" font-size="10.5" font-weight="500" fill="#0D47A1">Gérer les alertes emploi</text>
<ellipse cx="351" cy="501" rx="79" ry="17" fill="#BBDEFB" stroke="#42A5F5" stroke-width="1.4" filter="url(#sh)"/><text x="351" y="501" text-anchor="middle" dominant-baseline="central" font-family="Arial, sans-serif" font-size="10.5" font-weight="500" fill="#0D47A1">Messagerie interne</text>
<rect x="103" y="544" width="496" height="204" rx="6" fill="rgba(232,245,233,0.80)" stroke="#2E7D32" stroke-width="1.3" stroke-opacity="0.55"/>
<rect x="103" y="544" width="496" height="22" rx="6" fill="#2E7D32"/>
<rect x="103" y="558" width="496" height="8" fill="#2E7D32"/>
<text x="351" y="556" text-anchor="middle" dominant-baseline="central" font-family="Arial, sans-serif" font-size="10.5" font-weight="bold" fill="white">Outils IA — Groq</text>
<ellipse cx="222" cy="587" rx="79" ry="17" fill="#C8E6C9" stroke="#66BB6A" stroke-width="1.4" filter="url(#sh)"/><text x="222" y="587" text-anchor="middle" dominant-baseline="central" font-family="Arial, sans-serif" font-size="10.5" font-weight="500" fill="#1B5E20">Analyser son CV</text>
<ellipse cx="470" cy="587" rx="79" ry="17" fill="#C8E6C9" stroke="#66BB6A" stroke-width="1.4" filter="url(#sh)"/><text x="470" y="580" text-anchor="middle" dominant-baseline="central" font-family="Arial, sans-serif" font-size="10.5" font-weight="500" fill="#1B5E20">Adapter CV</text><text x="470" y="594" text-anchor="middle" dominant-baseline="central" font-family="Arial, sans-serif" font-size="10.5" font-weight="500" fill="#1B5E20">pour une offre</text>
<ellipse cx="222" cy="629" rx="79" ry="17" fill="#C8E6C9" stroke="#66BB6A" stroke-width="1.4" filter="url(#sh)"/><text x="222" y="622" text-anchor="middle" dominant-baseline="central" font-family="Arial, sans-serif" font-size="10.5" font-weight="500" fill="#1B5E20">Générer lettre</text><text x="222" y="636" text-anchor="middle" dominant-baseline="central" font-family="Arial, sans-serif" font-size="10.5" font-weight="500" fill="#1B5E20">de motivation</text>
<ellipse cx="470" cy="629" rx="79" ry="17" fill="#C8E6C9" stroke="#66BB6A" stroke-width="1.4" filter="url(#sh)"/><text x="470" y="622" text-anchor="middle" dominant-baseline="central" font-family="Arial, sans-serif" font-size="10.5" font-weight="500" fill="#1B5E20">Rédiger</text><text x="470" y="636" text-anchor="middle" dominant-baseline="central" font-family="Arial, sans-serif" font-size="10.5" font-weight="500" fill="#1B5E20">email professionnel</text>
<ellipse cx="222" cy="671" rx="79" ry="17" fill="#C8E6C9" stroke="#66BB6A" stroke-width="1.4" filter="url(#sh)"/><text x="222" y="671" text-anchor="middle" dominant-baseline="central" font-family="Arial, sans-serif" font-size="10.5" font-weight="500" fill="#1B5E20">Coach entretien</text>
<ellipse cx="470" cy="671" rx="79" ry="17" fill="#C8E6C9" stroke="#66BB6A" stroke-width="1.4" filter="url(#sh)"/><text x="470" y="671" text-anchor="middle" dominant-baseline="central" font-family="Arial, sans-serif" font-size="10.5" font-weight="500" fill="#1B5E20">Estimation salaire</text>
<ellipse cx="222" cy="713" rx="79" ry="17" fill="#C8E6C9" stroke="#66BB6A" stroke-width="1.4" filter="url(#sh)"/><text x="222" y="713" text-anchor="middle" dominant-baseline="central" font-family="Arial, sans-serif" font-size="10.5" font-weight="500" fill="#1B5E20">Plan de carrière</text>
<ellipse cx="470" cy="713" rx="79" ry="17" fill="#C8E6C9" stroke="#66BB6A" stroke-width="1.4" filter="url(#sh)"/><text x="470" y="713" text-anchor="middle" dominant-baseline="central" font-family="Arial, sans-serif" font-size="10.5" font-weight="500" fill="#1B5E20">Télécharger PDF / DOCX</text>
<rect x="103" y="756" width="496" height="204" rx="6" fill="rgba(252,228,236,0.80)" stroke="#AD1457" stroke-width="1.3" stroke-opacity="0.55"/>
<rect x="103" y="756" width="496" height="22" rx="6" fill="#AD1457"/>
<rect x="103" y="770" width="496" height="8" fill="#AD1457"/>
<text x="351" y="768" text-anchor="middle" dominant-baseline="central" font-family="Arial, sans-serif" font-size="10.5" font-weight="bold" fill="white">Espace Recruteur</text>
<ellipse cx="222" cy="799" rx="79" ry="17" fill="#FCE4EC" stroke="#F06292" stroke-width="1.4" filter="url(#sh)"/><text x="222" y="792" text-anchor="middle" dominant-baseline="central" font-family="Arial, sans-serif" font-size="10.5" font-weight="500" fill="#880E4F">Configurer</text><text x="222" y="806" text-anchor="middle" dominant-baseline="central" font-family="Arial, sans-serif" font-size="10.5" font-weight="500" fill="#880E4F">profil entreprise</text>
<ellipse cx="470" cy="799" rx="79" ry="17" fill="#FCE4EC" stroke="#F06292" stroke-width="1.4" filter="url(#sh)"/><text x="470" y="799" text-anchor="middle" dominant-baseline="central" font-family="Arial, sans-serif" font-size="10.5" font-weight="500" fill="#880E4F">Publier une offre</text>
<ellipse cx="222" cy="841" rx="79" ry="17" fill="#FCE4EC" stroke="#F06292" stroke-width="1.4" filter="url(#sh)"/><text x="222" y="841" text-anchor="middle" dominant-baseline="central" font-family="Arial, sans-serif" font-size="10.5" font-weight="500" fill="#880E4F">Gérer ses offres</text>
<ellipse cx="470" cy="841" rx="79" ry="17" fill="#FCE4EC" stroke="#F06292" stroke-width="1.4" filter="url(#sh)"/><text x="470" y="841" text-anchor="middle" dominant-baseline="central" font-family="Arial, sans-serif" font-size="10.5" font-weight="500" fill="#880E4F">Consulter candidatures</text>
<ellipse cx="222" cy="883" rx="79" ry="17" fill="#FCE4EC" stroke="#F06292" stroke-width="1.4" filter="url(#sh)"/><text x="222" y="876" text-anchor="middle" dominant-baseline="central" font-family="Arial, sans-serif" font-size="10.5" font-weight="500" fill="#880E4F">Changer</text><text x="222" y="890" text-anchor="middle" dominant-baseline="central" font-family="Arial, sans-serif" font-size="10.5" font-weight="500" fill="#880E4F">statut candidature</text>
<ellipse cx="470" cy="883" rx="79" ry="17" fill="#FCE4EC" stroke="#F06292" stroke-width="1.4" filter="url(#sh)"/><text x="470" y="883" text-anchor="middle" dominant-baseline="central" font-family="Arial, sans-serif" font-size="10.5" font-weight="500" fill="#880E4F">Voir profil candidat</text>
<ellipse cx="351" cy="925" rx="79" ry="17" fill="#FCE4EC" stroke="#F06292" stroke-width="1.4" filter="url(#sh)"/><text x="351" y="918" text-anchor="middle" dominant-baseline="central" font-family="Arial, sans-serif" font-size="10.5" font-weight="500" fill="#880E4F">Tableau de</text><text x="351" y="932" text-anchor="middle" dominant-baseline="central" font-family="Arial, sans-serif" font-size="10.5" font-weight="500" fill="#880E4F">bord recruteur</text>
<rect x="103" y="968" width="496" height="120" rx="6" fill="rgba(237,231,246,0.80)" stroke="#4527A0" stroke-width="1.3" stroke-opacity="0.55"/>
<rect x="103" y="968" width="496" height="22" rx="6" fill="#4527A0"/>
<rect x="103" y="982" width="496" height="8" fill="#4527A0"/>
<text x="351" y="980" text-anchor="middle" dominant-baseline="central" font-family="Arial, sans-serif" font-size="10.5" font-weight="bold" fill="white">Administration</text>
<ellipse cx="222" cy="1011" rx="79" ry="17" fill="#EDE7F6" stroke="#9575CD" stroke-width="1.4" filter="url(#sh)"/><text x="222" y="1011" text-anchor="middle" dominant-baseline="central" font-family="Arial, sans-serif" font-size="10.5" font-weight="500" fill="#311B92">Gérer les utilisateurs</text>
<ellipse cx="470" cy="1011" rx="79" ry="17" fill="#EDE7F6" stroke="#9575CD" stroke-width="1.4" filter="url(#sh)"/><text x="470" y="1011" text-anchor="middle" dominant-baseline="central" font-family="Arial, sans-serif" font-size="10.5" font-weight="500" fill="#311B92">Modérer les offres</text>
<ellipse cx="222" cy="1053" rx="79" ry="17" fill="#EDE7F6" stroke="#9575CD" stroke-width="1.4" filter="url(#sh)"/><text x="222" y="1053" text-anchor="middle" dominant-baseline="central" font-family="Arial, sans-serif" font-size="10.5" font-weight="500" fill="#311B92">Tableau de bord global</text>
<ellipse cx="470" cy="1053" rx="79" ry="17" fill="#EDE7F6" stroke="#9575CD" stroke-width="1.4" filter="url(#sh)"/><text x="470" y="1053" text-anchor="middle" dominant-baseline="central" font-family="Arial, sans-serif" font-size="10.5" font-weight="500" fill="#311B92">Piloter le scraping</text>
<rect x="103" y="1096" width="496" height="122" rx="6" fill="rgba(236,239,241,0.80)" stroke="#37474F" stroke-width="1.3" stroke-opacity="0.55"/>
<rect x="103" y="1096" width="496" height="22" rx="6" fill="#37474F"/>
<rect x="103" y="1110" width="496" height="8" fill="#37474F"/>
<text x="351" y="1108" text-anchor="middle" dominant-baseline="central" font-family="Arial, sans-serif" font-size="10.5" font-weight="bold" fill="white">Processus Automatisés</text>
<ellipse cx="222" cy="1139" rx="79" ry="17" fill="#CFD8DC" stroke="#78909C" stroke-width="1.4" filter="url(#sh)"/><text x="222" y="1139" text-anchor="middle" dominant-baseline="central" font-family="Arial, sans-serif" font-size="10.5" font-weight="500" fill="#263238">Scraper LinkedIn et AEJI</text>
<ellipse cx="470" cy="1139" rx="79" ry="17" fill="#CFD8DC" stroke="#78909C" stroke-width="1.4" filter="url(#sh)"/><text x="470" y="1139" text-anchor="middle" dominant-baseline="central" font-family="Arial, sans-serif" font-size="10.5" font-weight="500" fill="#263238">Envoyer alertes emploi</text>
<ellipse cx="351" cy="1181" rx="79" ry="17" fill="#CFD8DC" stroke="#78909C" stroke-width="1.4" filter="url(#sh)"/><text x="351" y="1181" text-anchor="middle" dominant-baseline="central" font-family="Arial, sans-serif" font-size="10.5" font-weight="500" fill="#263238">Envoyer notifications</text>
<circle cx="42" cy="93" r="13" fill="#FFF3E0" stroke="#7F3100" stroke-width="2"/><line x1="42" y1="106" x2="42" y2="138" stroke="#7F3100" stroke-width="2"/><line x1="22" y1="120" x2="62" y2="120" stroke="#7F3100" stroke-width="2"/><line x1="42" y1="138" x2="26" y2="160" stroke="#7F3100" stroke-width="2"/><line x1="42" y1="138" x2="58" y2="160" stroke="#7F3100" stroke-width="2"/><text x="42" y="175" text-anchor="middle" font-family="Arial, sans-serif" font-size="11.5" font-weight="bold" fill="#7F3100">Visiteur</text>
<circle cx="42" cy="391" r="13" fill="#BBDEFB" stroke="#0D47A1" stroke-width="2"/><line x1="42" y1="404" x2="42" y2="436" stroke="#0D47A1" stroke-width="2"/><line x1="22" y1="418" x2="62" y2="418" stroke="#0D47A1" stroke-width="2"/><line x1="42" y1="436" x2="26" y2="458" stroke="#0D47A1" stroke-width="2"/><line x1="42" y1="436" x2="58" y2="458" stroke="#0D47A1" stroke-width="2"/><text x="42" y="473" text-anchor="middle" font-family="Arial, sans-serif" font-size="11.5" font-weight="bold" fill="#0D47A1">Candidat</text>
<circle cx="42" cy="815" r="13" fill="#FCE4EC" stroke="#880E4F" stroke-width="2"/><line x1="42" y1="828" x2="42" y2="860" stroke="#880E4F" stroke-width="2"/><line x1="22" y1="842" x2="62" y2="842" stroke="#880E4F" stroke-width="2"/><line x1="42" y1="860" x2="26" y2="882" stroke="#880E4F" stroke-width="2"/><line x1="42" y1="860" x2="58" y2="882" stroke="#880E4F" stroke-width="2"/><text x="42" y="897" text-anchor="middle" font-family="Arial, sans-serif" font-size="11.5" font-weight="bold" fill="#880E4F">Recruteur</text>
<circle cx="42" cy="985" r="13" fill="#EDE7F6" stroke="#311B92" stroke-width="2"/><line x1="42" y1="998" x2="42" y2="1030" stroke="#311B92" stroke-width="2"/><line x1="22" y1="1012" x2="62" y2="1012" stroke="#311B92" stroke-width="2"/><line x1="42" y1="1030" x2="26" y2="1052" stroke="#311B92" stroke-width="2"/><line x1="42" y1="1030" x2="58" y2="1052" stroke="#311B92" stroke-width="2"/><text x="42" y="1067" text-anchor="middle" font-family="Arial, sans-serif" font-size="11.5" font-weight="bold" fill="#311B92">Admin</text>
<rect x="630" y="615" width="76" height="50" rx="8" fill="rgba(255,255,255,0.85)" stroke="#2E7D32" stroke-width="1.3" stroke-dasharray="5,3"/>
<text x="668" y="633" text-anchor="middle" font-family="Arial, sans-serif" font-size="12" font-weight="bold" fill="#2E7D32">Groq IA</text>
<text x="668" y="649" text-anchor="middle" font-family="Arial, sans-serif" font-size="9" fill="#666">(externe)</text>
<rect x="630" y="1125" width="76" height="50" rx="8" fill="rgba(255,255,255,0.85)" stroke="#37474F" stroke-width="1.3" stroke-dasharray="5,3"/>
<text x="668" y="1143" text-anchor="middle" font-family="Arial, sans-serif" font-size="12" font-weight="bold" fill="#37474F">Scraper</text>
<text x="668" y="1159" text-anchor="middle" font-family="Arial, sans-serif" font-size="9" fill="#666">(auto)</text>
<line x1="42" y1="119" x2="143.0" y2="119.0" stroke="#CC7A00" stroke-width="0.9"/>
<line x1="42" y1="119" x2="391.0" y2="119.0" stroke="#CC7A00" stroke-width="0.9"/>
<line x1="42" y1="119" x2="150.7" y2="197.7" stroke="#CC7A00" stroke-width="0.9"/>
<line x1="42" y1="417" x2="405.2" y2="128.7" stroke="#1976D2" stroke-width="0.8"/>
<line x1="42" y1="417" x2="170.9" y2="218.0" stroke="#1976D2" stroke-width="0.8"/>
<line x1="42" y1="417" x2="399.2" y2="212.5" stroke="#1976D2" stroke-width="0.8"/>
<line x1="42" y1="417" x2="164.6" y2="258.7" stroke="#1976D2" stroke-width="0.8"/>
<line x1="42" y1="417" x2="150.4" y2="340.2" stroke="#1976D2" stroke-width="0.8"/>
<line x1="42" y1="417" x2="392.5" y2="336.3" stroke="#1976D2" stroke-width="0.8"/>
<line x1="42" y1="417" x2="145.1" y2="378.9" stroke="#1976D2" stroke-width="0.8"/>
<line x1="42" y1="417" x2="391.4" y2="376.7" stroke="#1976D2" stroke-width="0.8"/>
<line x1="42" y1="417" x2="143.0" y2="417.0" stroke="#1976D2" stroke-width="0.8"/>
<line x1="42" y1="417" x2="391.0" y2="417.0" stroke="#1976D2" stroke-width="0.8"/>
<line x1="42" y1="417" x2="145.1" y2="455.1" stroke="#1976D2" stroke-width="0.8"/>
<line x1="42" y1="417" x2="391.4" y2="457.3" stroke="#1976D2" stroke-width="0.8"/>
<line x1="42" y1="417" x2="274.8" y2="496.5" stroke="#1976D2" stroke-width="0.8"/>
<line x1="42" y1="841" x2="429.7" y2="133.6" stroke="#C2185B" stroke-width="0.85"/>
<line x1="42" y1="841" x2="145.1" y2="802.9" stroke="#C2185B" stroke-width="0.85"/>
<line x1="42" y1="841" x2="391.4" y2="800.7" stroke="#C2185B" stroke-width="0.85"/>
<line x1="42" y1="841" x2="143.0" y2="841.0" stroke="#C2185B" stroke-width="0.85"/>
<line x1="42" y1="841" x2="391.0" y2="841.0" stroke="#C2185B" stroke-width="0.85"/>
<line x1="42" y1="841" x2="145.1" y2="879.1" stroke="#C2185B" stroke-width="0.85"/>
<line x1="42" y1="841" x2="391.4" y2="881.3" stroke="#C2185B" stroke-width="0.85"/>
<line x1="42" y1="841" x2="274.8" y2="920.5" stroke="#C2185B" stroke-width="0.85"/>
<line x1="42" y1="1011" x2="435.8" y2="134.3" stroke="#512DA8" stroke-width="0.85"/>
<line x1="42" y1="1011" x2="143.0" y2="1011.0" stroke="#512DA8" stroke-width="0.85"/>
<line x1="42" y1="1011" x2="391.0" y2="1011.0" stroke="#512DA8" stroke-width="0.85"/>
<line x1="42" y1="1011" x2="145.1" y2="1049.1" stroke="#512DA8" stroke-width="0.85"/>
<line x1="42" y1="1011" x2="391.4" y2="1051.3" stroke="#512DA8" stroke-width="0.85"/>
<line x1="668" y1="639" x2="300.5" y2="589.0" stroke="#388E3C" stroke-width="0.85" stroke-dasharray="5,4"/>
<line x1="668" y1="639" x2="546.4" y2="591.3" stroke="#388E3C" stroke-width="0.85" stroke-dasharray="5,4"/>
<line x1="668" y1="639" x2="301.0" y2="629.4" stroke="#388E3C" stroke-width="0.85" stroke-dasharray="5,4"/>
<line x1="668" y1="639" x2="548.9" y2="629.9" stroke="#388E3C" stroke-width="0.85" stroke-dasharray="5,4"/>
<line x1="668" y1="639" x2="300.8" y2="669.8" stroke="#388E3C" stroke-width="0.85" stroke-dasharray="5,4"/>
<line x1="668" y1="639" x2="548.0" y2="668.3" stroke="#388E3C" stroke-width="0.85" stroke-dasharray="5,4"/>
<line x1="668" y1="639" x2="299.9" y2="710.2" stroke="#388E3C" stroke-width="0.85" stroke-dasharray="5,4"/>
<line x1="668" y1="639" x2="522.6" y2="429.7" stroke="#388E3C" stroke-width="0.85" stroke-dasharray="5,4"/>
<line x1="668" y1="1149" x2="301.0" y2="1139.4" stroke="#546E7A" stroke-width="0.85"/>
<line x1="668" y1="1149" x2="548.9" y2="1139.9" stroke="#546E7A" stroke-width="0.85"/>
<line x1="668" y1="1149" x2="429.6" y2="1179.3" stroke="#546E7A" stroke-width="0.85"/>
<line x1="301.0" y1="247.0" x2="391.0" y2="247.0" stroke="#555" stroke-width="1.1" stroke-dasharray="5,4" marker-end="url(#arrd)"/>
<rect x="320.0" y="235.0" width="52" height="13" rx="3" fill="white" fill-opacity="0.9"/>
<text x="346.0" y="243.0" text-anchor="middle" dominant-baseline="central" font-family="Arial, sans-serif" font-size="9" fill="#444">«include»</text>
<line x1="296.6" y1="327.4" x2="395.4" y2="252.6" stroke="#555" stroke-width="1.1" stroke-dasharray="5,4" marker-end="url(#arrd)"/>
<rect x="320.0" y="278.0" width="52" height="13" rx="3" fill="white" fill-opacity="0.9"/>
<text x="346.0" y="286.0" text-anchor="middle" dominant-baseline="central" font-family="Arial, sans-serif" font-size="9" fill="#444">«include»</text>
<line x1="301.0" y1="417.0" x2="391.0" y2="417.0" stroke="#555" stroke-width="1.1" stroke-dasharray="5,4" marker-end="url(#arrd)"/>
<rect x="320.0" y="405.0" width="52" height="13" rx="3" fill="white" fill-opacity="0.9"/>
<text x="346.0" y="413.0" text-anchor="middle" dominant-baseline="central" font-family="Arial, sans-serif" font-size="9" fill="#444">«include»</text>
<line x1="296.8" y1="634.5" x2="395.2" y2="707.5" stroke="#555" stroke-width="1.1" stroke-dasharray="5,4" marker-end="url(#arrd)"/>
<rect x="320.0" y="659.0" width="52" height="13" rx="3" fill="white" fill-opacity="0.9"/>
<text x="346.0" y="667.0" text-anchor="middle" dominant-baseline="central" font-family="Arial, sans-serif" font-size="9" fill="#444">«extend»</text>
<line x1="470.0" y1="646.0" x2="470.0" y2="696.0" stroke="#555" stroke-width="1.1" stroke-dasharray="5,4" marker-end="url(#arrd)"/>
<rect x="444.0" y="659.0" width="52" height="13" rx="3" fill="white" fill-opacity="0.9"/>
<text x="470.0" y="667.0" text-anchor="middle" dominant-baseline="central" font-family="Arial, sans-serif" font-size="9" fill="#444">«extend»</text>
<rect x="96" y="1268" width="506" height="40" rx="5" fill="#F8F9FA" stroke="#DDE" stroke-width="0.8"/>
<line x1="110" y1="1284" x2="145" y2="1284" stroke="#888" stroke-width="1"/>
<text x="190" y="1288" font-family="Arial, sans-serif" font-size="9.5" fill="#555">Association acteur</text>
<line x1="240" y1="1284" x2="275" y2="1284" stroke="#555" stroke-width="1" stroke-dasharray="4,3"/><polygon points="275,1281 281,1284 275,1287" fill="#555"/>
<text x="320" y="1288" font-family="Arial, sans-serif" font-size="9.5" fill="#555">«include» / «extend»</text>
<rect x="400" y="1278" width="44" height="18" rx="4" fill="white" stroke="#37474F" stroke-width="1" stroke-dasharray="4,3"/><text x="422" y="1288" text-anchor="middle" font-family="Arial, sans-serif" font-size="8" fill="#37474F">Système</text>
<text x="480" y="1288" font-family="Arial, sans-serif" font-size="9.5" fill="#555">Acteur externe</text>
</svg>